<svg width="256" height="256" viewBox="0 0 256 256" xmlns="http://www.w3.org/2000/svg">
  <defs>
    <linearGradient id="bg" x1="0%" y1="0%" x2="100%" y2="100%">
      <stop offset="0%" stop-color="#4ea1ff"/>
      <stop offset="100%" stop-color="#1565f5"/>
    </linearGradient>
    <linearGradient id="cloud" x1="0%" y1="0%" x2="0%" y2="100%">
      <stop offset="0%" stop-color="#ffffff"/>
      <stop offset="100%" stop-color="#d7e8ff"/>
    </linearGradient>
  </defs>

  <rect x="20" y="20" width="216" height="216" rx="36" fill="url(#bg)"/>

  <g transform="translate(95 90)">
    <circle r="34" fill="#FFD54F"/>
    <g stroke="#FFD54F" stroke-width="6" stroke-linecap="round">
      <line x1="0" y1="-52" x2="0" y2="-68"/>
      <line x1="0" y1="52" x2="0" y2="68"/>
      <line x1="-52" y1="0" x2="-68" y2="0"/>
      <line x1="52" y1="0" x2="68" y2="0"/>
      <line x1="-37" y1="-37" x2="-49" y2="-49"/>
      <line x1="37" y1="-37" x2="49" y2="-49"/>
      <line x1="-37" y1="37" x2="-49" y2="49"/>
      <line x1="37" y1="37" x2="49" y2="49"/>
    </g>
  </g>

  <g transform="translate(70 120)">
    <circle cx="28" cy="24" r="24" fill="url(#cloud)"/>
    <circle cx="62" cy="14" r="32" fill="url(#cloud)"/>
    <circle cx="98" cy="28" r="26" fill="url(#cloud)"/>
    <rect x="20" y="24" width="96" height="36" rx="18" fill="url(#cloud)"/>
  </g>
</svg>